<svg width="28" height="29" viewBox="0 0 28 29" fill="none" xmlns="http://www.w3.org/2000/svg">
<path d="M5.25586 27.8516C11.9841 28.653 15.7998 28.6763 22.684 27.9517" stroke="black" stroke-width="0.5" stroke-linecap="round"/>
<path d="M1.60791 6.47168L5.0089 27.6044" stroke="black" stroke-width="0.5" stroke-linecap="round"/>
<path d="M22.6836 27.9529L26.3313 6.47169" stroke="black" stroke-width="0.5" stroke-linecap="round"/>
<path fill-rule="evenodd" clip-rule="evenodd" d="M26.2118 6.78975C26.2485 6.78083 26.2836 6.77185 26.3172 6.76282C26.6561 6.67172 26.838 6.57527 26.838 6.47545C26.838 6.37562 26.6561 6.27917 26.3172 6.18807L24.2533 6.47545C23.8888 6.51429 23.4869 6.55124 23.0505 6.58588C20.7606 6.76762 17.5856 6.88075 14.0708 6.88075C10.5561 6.88075 7.38109 6.76762 5.09121 6.58588C4.6548 6.55124 4.25282 6.51429 3.8884 6.47545L1.82447 6.18807C1.42615 6.24904 2.19223 6.09172 1.92982 6.16114C1.89318 6.17006 1.85805 6.17904 1.82447 6.18807C1.48559 6.27917 1.30371 6.37562 1.30371 6.47545C1.30371 6.57527 1.48559 6.67172 1.82447 6.76282C1.85805 6.77185 1.89318 6.78083 1.92982 6.78975C3.59633 7.1955 8.40214 7.48871 14.0708 7.48871C19.7395 7.48871 24.5453 7.1955 26.2118 6.78975Z" fill="black"/>
<path d="M26.6229 3.73974C26.623 3.73974 26.6224 3.74027 26.6212 3.74133C26.6223 3.74026 26.6229 3.73974 26.6229 3.73974ZM25.7885 3.68854C26.0541 3.73837 26.2601 3.78858 26.4073 3.83724C26.2601 3.8859 26.0541 3.9361 25.7885 3.98593C25.1555 4.10471 24.231 4.21306 23.0788 4.30451C20.7768 4.4872 17.5919 4.6005 14.0708 4.6005C10.5497 4.6005 7.36485 4.4872 5.06289 4.30451C3.91066 4.21306 2.98614 4.10471 2.35312 3.98593C2.08754 3.9361 1.88152 3.8859 1.73439 3.83724C1.88152 3.78858 2.08754 3.73838 2.35312 3.68854C2.98614 3.56976 3.91066 3.46142 5.06289 3.36997C7.36485 3.18727 10.5497 3.07397 14.0708 3.07397C17.5919 3.07397 20.7768 3.18727 23.0788 3.36997C24.231 3.46142 25.1555 3.56976 25.7885 3.68854ZM1.51874 3.73974C1.51879 3.73974 1.51942 3.74027 1.52046 3.74133C1.51922 3.74027 1.5187 3.73974 1.51874 3.73974ZM1.51874 3.93474C1.5187 3.93474 1.51922 3.9342 1.52046 3.93314C1.51942 3.93421 1.51879 3.93474 1.51874 3.93474ZM26.6212 3.93314C26.6224 3.9342 26.623 3.93474 26.6229 3.93474C26.6229 3.93474 26.6222 3.93421 26.6212 3.93314Z" stroke="black" stroke-width="0.5"/>
<path d="M1.50684 4.03979L1.10153 4.54643L1.0002 5.15438L1.10153 5.76234L1.50684 6.26897" stroke="black" stroke-width="0.5" stroke-linecap="round"/>
<path d="M26.6357 4.03979L27.041 4.54643L27.1424 5.15438L27.041 5.76234L26.6357 6.26897" stroke="black" stroke-width="0.5" stroke-linecap="round"/>
<path d="M10.8286 3.62196C10.8286 0.0755353 17.3135 0.176861 17.3135 3.62196" stroke="black" stroke-width="0.5" stroke-linecap="round"/>
<path d="M19.5864 27.9688L22.0757 7.07959" stroke="black" stroke-width="0.5" stroke-linecap="round"/>
<path d="M5.86377 7.28223L8.2956 27.7502" stroke="black" stroke-width="0.5" stroke-linecap="round"/>
<path d="M10.9302 7.28223L11.569 28.3332" stroke="black" stroke-width="0.5" stroke-linecap="round"/>
<path d="M16.853 28.1509L17.0352 7.37766" stroke="black" stroke-width="0.5" stroke-linecap="round"/>
</svg>
